<?xml version="1.0" standalone="no"?>
<!DOCTYPE svg PUBLIC "-//W3C//DTD SVG 20010904//EN"
 "http://www.w3.org/TR/2001/REC-SVG-20010904/DTD/svg10.dtd">
<svg version="1.0" xmlns="http://www.w3.org/2000/svg"
 width="397.000000pt" height="397.000000pt" viewBox="0 0 397.000000 397.000000"
 preserveAspectRatio="xMidYMid meet">
<metadata>
Created by potrace 1.11, written by Peter Selinger 2001-2013
</metadata>
<g transform="translate(0.000000,397.000000) scale(0.100000,-0.100000)"
fill="#000000" stroke="none">
<path d="M1490 3866 c-111 -31 -206 -109 -253 -208 -35 -75 -40 -116 -39 -353
l0 -211 -416 1 c-436 0 -468 -3 -553 -45 -54 -27 -138 -111 -164 -165 -44 -91
-44 -75 -45 -1260 0 -1233 -2 -1199 57 -1290 50 -79 140 -147 224 -173 30 -9
3325 -9 3359 0 126 33 225 127 269 254 20 58 20 75 18 1219 l-2 1160 -22 55
c-46 112 -171 216 -283 236 -25 4 -229 8 -455 8 l-410 1 -5 245 c-5 211 -8
251 -24 290 -46 109 -129 188 -238 228 -54 20 -75 21 -515 21 -335 0 -470 -4
-503 -13z m870 -385 c14 -1 16 -27 15 -193 l0 -193 -390 0 -390 0 -1 190 c0
105 3 192 7 195 6 4 706 5 759 1z m-285 -663 c104 -55 145 -186 90 -287 -83
-151 -301 -148 -375 4 -71 148 35 308 199 301 31 -1 70 -10 86 -18z m60 -1126
c-2 -567 -3 -600 -22 -662 -46 -147 -126 -261 -248 -349 -54 -39 -158 -89
-203 -97 -15 -3 -36 -8 -47 -11 -30 -10 -258 -12 -270 -2 -7 5 -10 65 -10 156
l0 148 94 1 c119 2 163 9 213 35 47 24 111 86 134 130 38 75 40 99 39 674 -1
308 0 563 2 567 2 3 74 6 162 6 l158 1 -2 -597z"/>
</g>
</svg>
