<svg xmlns="http://www.w3.org/2000/svg" width="13.476" height="13.487" viewBox="0 0 13.476 13.487">
  <path id="s" d="M12.132,13.361l-1.288-1.268a.412.412,0,0,1-.094-.249v-.437a6.732,6.732,0,0,1-1.968,1.172A6.293,6.293,0,0,1,6.5,13a6.312,6.312,0,0,1-3.265-.875A6.565,6.565,0,0,1,.875,9.766,6.316,6.316,0,0,1,0,6.5,6.312,6.312,0,0,1,.875,3.235,6.561,6.561,0,0,1,3.235.875,6.312,6.312,0,0,1,6.5,0,6.316,6.316,0,0,1,9.766.875a6.565,6.565,0,0,1,2.359,2.36A6.312,6.312,0,0,1,13,6.5a6.293,6.293,0,0,1-.421,2.282,6.732,6.732,0,0,1-1.172,1.968h.437a.335.335,0,0,1,.249.094l1.289,1.3a.339.339,0,0,1,.094.25.458.458,0,0,1-.094.281l-.719.688a.387.387,0,0,1-.281.125A.3.3,0,0,1,12.132,13.361Z" fill="#636d73" opacity="0.5"/>
</svg>
