<svg xmlns="http://www.w3.org/2000/svg" width="20.17" height="22.691" viewBox="0 0 20.17 22.691"><path d="M16.213,22.691H3.957C1.738,22.691,0,21.3,0,19.521V10.966A3.323,3.323,0,0,1,2.968,7.9,3.2,3.2,0,0,0,3.9,9.859l.508.509h-.45c-.9,0-1.392.448-1.392.6v8.556c0,.149.494.6,1.392.6H16.213c.9,0,1.392-.449,1.392-.6V10.966c0-.149-.494-.6-1.392-.6h-.385l.508-.509a3.2,3.2,0,0,0,.928-1.95,3.317,3.317,0,0,1,2.906,3.058v8.555C20.17,21.3,18.432,22.691,16.213,22.691ZM10.127,12.81h-.018a1.3,1.3,0,0,1-.929-.386L5.26,8.495a1.231,1.231,0,0,1-.151-.186c-.014-.02-.025-.04-.037-.06l-.005-.009A1.227,1.227,0,0,1,5,8.107c-.015-.033-.027-.062-.036-.088a1.361,1.361,0,0,1-.04-.132c0-.012-.006-.024-.009-.036S4.9,7.814,4.9,7.8a1.311,1.311,0,0,1,1.29-1.549,1.3,1.3,0,0,1,.928.386L8.76,8.281V1.316a1.313,1.313,0,1,1,2.627,0V8.371l1.732-1.738a1.311,1.311,0,0,1,1.857,0A1.327,1.327,0,0,1,15.339,7.8c-.005.021-.011.041-.017.062l-.007.025a.965.965,0,0,1-.04.135c-.011.031-.024.06-.036.087a1.376,1.376,0,0,1-.07.134l-.01.017c-.01.017-.02.034-.032.051a1.359,1.359,0,0,1-.152.186l-3.92,3.93A1.3,1.3,0,0,1,10.127,12.81Z" fill="#9b9b9b"/></svg>